<svg xmlns="http://www.w3.org/2000/svg" viewBox="0 0 100 100">
  <g stroke="#055330" stroke-width="4.5" fill="none" stroke-linecap="round" stroke-linejoin="round">
    <!-- flippers (tucked behind the shell) -->
    <ellipse cx="25" cy="26.5" rx="13.5" ry="5" transform="rotate(42 25 26.5)"/>
    <ellipse cx="75" cy="26.5" rx="13.5" ry="5" transform="rotate(-42 75 26.5)"/>
    <ellipse cx="26" cy="70" rx="12" ry="5" transform="rotate(-40 26 70)"/>
    <ellipse cx="74" cy="70" rx="12" ry="5" transform="rotate(40 74 70)"/>
    <!-- heart shell: open path, lobes end at the head sides (white fill masks flipper roots) -->
    <path fill="#ffffff" d="M43 29 C40 25.5 34.5 25.7 30.8 29.3 C25 34.5 23.5 44 25.3 51.5 C 27.5 63.5 36.5 73.5 50 85 C 63.5 73.5 72.5 63.5 74.7 51.5 C76.5 44 75 34.5 69.2 29.3 C65.5 25.7 60 25.5 57 29 L57 21 Q57 13.5 50 13.5 Q43 13.5 43 21 Z"/>
    <!-- head arch (redrawn over fill) -->
    <path d="M43 29 L43 21 Q43 13.5 50 13.5 Q57 13.5 57 21 L57 29"/>
    <!-- shell outline redrawn (over fill edge artifacts) -->
    <path d="M43 29 C40 25.5 34.5 25.7 30.8 29.3 C25 34.5 23.5 44 25.3 51.5 C 27.5 63.5 36.5 73.5 50 85 C 63.5 73.5 72.5 63.5 74.7 51.5 C76.5 44 75 34.5 69.2 29.3 C65.5 25.7 60 25.5 57 29"/>
    <!-- scute pattern -->
    <path d="M43 29 L41 44 M57 29 L59 44"/>
    <path d="M41 44 L59 44 L66.5 55 L59 66 L41 66 L33.5 55 Z"/>
    <path d="M33.5 55 L25.4 55 M66.5 55 L74.6 55"/>
    <path d="M41 66 L36.1 71.7 M59 66 L63.9 71.7"/>
  </g>
</svg>
